<?xml version="1.0" ?><svg id="Icon_Set" style="enable-background:new 0 0 64 64;" version="1.1" viewBox="0 0 64 64" xml:space="preserve" xmlns="http://www.w3.org/2000/svg" xmlns:xlink="http://www.w3.org/1999/xlink"><style type="text/css">
	.st0{fill:#263238;}
	.st1{fill:#FF7155;}
	.st2{fill:#FFFFFF;}
	.st3{fill:#FF5592;}
	.st4{fill:#FF5252;}
	.st5{fill:#FFD740;}
	.st6{fill-rule:evenodd;clip-rule:evenodd;fill:#4DB6AC;}
	.st7{fill-rule:evenodd;clip-rule:evenodd;fill:#FF7155;}
	.st8{fill-rule:evenodd;clip-rule:evenodd;fill:#FFFFFF;}
	.st9{fill:#4DB6AC;}
	.st10{fill:#6F67D6;}
	.st11{fill:#FF7155;}
	.st12{fill:#445056;}
	.st13{fill:#08141A;}
</style><g><g><path class="st1" d="M32,16c-9.941,0-18,7.163-18,16c0,2.905,0.885,5.622,2.407,7.97L14,47.995l8.349-2.505    C25.14,47.072,28.445,48,32,48c9.941,0,18-7.163,18-16S41.941,16,32,16z"/></g><g><path class="st1" d="M32,16c-9.941,0-18,7.163-18,16c0,2.905,0.885,5.622,2.407,7.97L14,47.995l8.349-2.505    C25.14,47.072,28.445,48,32,48c9.941,0,18-7.163,18-16S41.941,16,32,16z"/></g><g><path class="st0" d="M52,56.5H12c-2.481,0-4.5-2.019-4.5-4.5V16c0-0.276,0.224-0.5,0.5-0.5s0.5,0.224,0.5,0.5v36    c0,1.93,1.57,3.5,3.5,3.5h40c1.93,0,3.5-1.57,3.5-3.5v-2c0-0.276,0.224-0.5,0.5-0.5s0.5,0.224,0.5,0.5v2    C56.5,54.481,54.481,56.5,52,56.5z"/></g><g><path class="st0" d="M56,48.5c-0.276,0-0.5-0.224-0.5-0.5V12c0-1.93-1.57-3.5-3.5-3.5H12c-1.93,0-3.5,1.57-3.5,3.5v2    c0,0.276-0.224,0.5-0.5,0.5S7.5,14.276,7.5,14v-2c0-2.481,2.019-4.5,4.5-4.5h40c2.481,0,4.5,2.019,4.5,4.5v36    C56.5,48.276,56.276,48.5,56,48.5z"/></g><g><path class="st0" d="M32,48.5c-3.428,0-6.781-0.854-9.71-2.47l-8.146,2.444c-0.178,0.053-0.367,0.005-0.497-0.125    c-0.13-0.13-0.178-0.321-0.125-0.497l2.341-7.806C14.316,37.584,13.5,34.807,13.5,32c0-9.098,8.299-16.5,18.5-16.5    S50.5,22.902,50.5,32S42.201,48.5,32,48.5z M22.349,44.99c0.085,0,0.17,0.022,0.247,0.065c2.824,1.6,6.076,2.445,9.405,2.445    c9.649,0,17.5-6.953,17.5-15.5S41.649,16.5,32,16.5S14.5,23.453,14.5,32c0,2.688,0.805,5.351,2.327,7.698    c0.08,0.123,0.102,0.275,0.06,0.416l-2.141,7.136l7.459-2.238C22.252,44.997,22.3,44.99,22.349,44.99z"/></g><g><polygon class="st2" points="41.5,28 35.5,32 28.5,27 22.5,36 28.5,32 35.5,37   "/></g><g><path class="st0" d="M35.5,37.5c-0.104,0-0.205-0.032-0.291-0.093l-6.719-4.799l-5.713,3.809    c-0.198,0.131-0.462,0.106-0.631-0.062s-0.195-0.433-0.062-0.631l6-9c0.075-0.113,0.193-0.19,0.326-0.214    c0.135-0.025,0.271,0.006,0.381,0.085l6.719,4.799l5.713-3.809c0.198-0.133,0.462-0.107,0.631,0.062    c0.168,0.168,0.195,0.433,0.062,0.631l-6,9c-0.075,0.113-0.193,0.19-0.326,0.214C35.56,37.497,35.53,37.5,35.5,37.5z M28.5,31.5    c0.102,0,0.204,0.031,0.291,0.093l6.58,4.7l4.327-6.49l-3.92,2.613c-0.172,0.116-0.398,0.112-0.568-0.009l-6.58-4.7l-4.327,6.49    l3.92-2.613C28.307,31.528,28.403,31.5,28.5,31.5z"/></g></g></svg>