<svg width="48" height="48" viewBox="0 0 48 48" fill="none" xmlns="http://www.w3.org/2000/svg">
<path d="M27.64 44H20.36C19.9039 44.0001 19.4614 43.8442 19.106 43.5583C18.7506 43.2724 18.5036 42.8736 18.406 42.428L17.592 38.66C16.5061 38.1842 15.4765 37.5892 14.522 36.886L10.848 38.056C10.4131 38.1947 9.94391 38.1804 9.51825 38.0156C9.09259 37.8508 8.73611 37.5454 8.50801 37.15L4.86001 30.848C4.6343 30.4523 4.54958 29.9916 4.6197 29.5415C4.68982 29.0914 4.91063 28.6783 5.24601 28.37L8.09601 25.77C7.96641 24.5922 7.96641 23.4038 8.09601 22.226L5.24601 19.632C4.91016 19.3235 4.68904 18.9101 4.61891 18.4596C4.54878 18.009 4.63379 17.5479 4.86001 17.152L8.50001 10.846C8.72811 10.4506 9.08459 10.1452 9.51025 9.98038C9.93591 9.81557 10.4051 9.80132 10.84 9.94L14.514 11.11C15.002 10.75 15.51 10.414 16.034 10.11C16.54 9.826 17.06 9.568 17.592 9.338L18.408 5.574C18.5052 5.1284 18.7517 4.72938 19.1067 4.4431C19.4617 4.15682 19.9039 4.00048 20.36 4H27.64C28.0961 4.00048 28.5383 4.15682 28.8933 4.4431C29.2483 4.72938 29.4949 5.1284 29.592 5.574L30.416 9.34C31.5005 9.81854 32.5299 10.4134 33.486 11.114L37.162 9.944C37.5966 9.80583 38.0654 9.82034 38.4906 9.98512C38.9158 10.1499 39.272 10.4551 39.5 10.85L43.14 17.156C43.604 17.97 43.444 19 42.754 19.634L39.904 22.234C40.0336 23.4118 40.0336 24.6002 39.904 25.778L42.754 28.378C43.444 29.014 43.604 30.042 43.14 30.856L39.5 37.162C39.2719 37.5574 38.9154 37.8628 38.4898 38.0276C38.0641 38.1924 37.5949 38.2067 37.16 38.068L33.486 36.898C32.5323 37.6007 31.5033 38.195 30.418 38.67L29.592 42.428C29.4945 42.8732 29.2478 43.2718 28.8928 43.5577C28.5378 43.8436 28.0958 43.9996 27.64 44ZM23.992 16C21.8703 16 19.8354 16.8429 18.3352 18.3431C16.8349 19.8434 15.992 21.8783 15.992 24C15.992 26.1217 16.8349 28.1566 18.3352 29.6569C19.8354 31.1571 21.8703 32 23.992 32C26.1137 32 28.1486 31.1571 29.6489 29.6569C31.1492 28.1566 31.992 26.1217 31.992 24C31.992 21.8783 31.1492 19.8434 29.6489 18.3431C28.1486 16.8429 26.1137 16 23.992 16Z" fill="white"/>
</svg>
