<svg width="505" height="505" viewBox="0 0 505 505" fill="none" xmlns="http://www.w3.org/2000/svg">
<path d="M252.617 75.5571C142.128 75.5571 52.5572 155.17 52.5572 253.388C52.5572 285.676 62.3935 315.873 79.3097 341.97L52.5572 431.164L145.352 403.322C176.372 420.905 213.105 431.219 252.617 431.219C363.106 431.219 452.677 351.606 452.677 253.388C452.677 155.17 363.106 75.5571 252.617 75.5571Z" fill="#FF7155"/>
<path d="M252.617 75.5571C142.128 75.5571 52.5572 155.17 52.5572 253.388C52.5572 285.676 62.3935 315.873 79.3097 341.97L52.5572 431.164L145.352 403.322C176.372 420.905 213.105 431.219 252.617 431.219C363.106 431.219 452.677 351.606 452.677 253.388C452.677 155.17 363.106 75.5571 252.617 75.5571Z" fill="#FF7155"/>
<path d="M252.617 436.776C214.517 436.776 177.25 427.285 144.696 409.324L54.1577 436.487C52.1793 437.076 50.0787 436.543 48.6338 435.098C47.1889 433.653 46.6555 431.53 47.2445 429.574L73.2634 342.815C56.0694 315.451 47 284.586 47 253.388C47 152.269 139.239 70 252.617 70C365.995 70 458.234 152.269 458.234 253.388C458.234 354.507 365.995 436.776 252.617 436.776ZM145.352 397.765C146.296 397.765 147.241 398.009 148.097 398.487C179.484 416.27 215.628 425.662 252.628 425.662C359.871 425.662 447.131 348.383 447.131 253.388C447.131 158.393 359.86 81.1144 252.617 81.1144C145.374 81.1144 58.1144 158.393 58.1144 253.388C58.1144 283.264 67.0616 312.862 83.9777 338.947C84.8669 340.314 85.1114 342.004 84.6446 343.571L60.8486 422.883L143.751 398.009C144.274 397.843 144.807 397.765 145.352 397.765Z" fill="#263238"/>
<path d="M358.204 208.931L291.518 253.389L213.717 197.816L147.03 297.846L213.717 253.389L291.518 308.961L358.204 208.931Z" fill="white"/>
<path d="M291.518 314.518C290.362 314.518 289.239 314.162 288.283 313.484L213.605 260.146L150.109 302.481C147.908 303.937 144.974 303.659 143.095 301.792C141.217 299.924 140.928 296.979 142.406 294.778L209.093 194.748C209.927 193.492 211.238 192.637 212.716 192.37C214.217 192.092 215.728 192.437 216.951 193.315L291.629 246.653L355.126 204.318C357.326 202.84 360.26 203.129 362.139 205.007C364.006 206.874 364.306 209.82 362.828 212.02L296.141 312.05C295.308 313.306 293.996 314.162 292.518 314.429C292.184 314.484 291.851 314.518 291.518 314.518ZM213.717 247.831C214.85 247.831 215.984 248.176 216.951 248.865L290.084 301.102L338.176 228.97L294.607 258.012C292.696 259.301 290.184 259.257 288.294 257.912L215.161 205.674L167.069 277.807L210.638 248.765C211.571 248.142 212.638 247.831 213.717 247.831Z" fill="#263238"/>
</svg>
